# xmcd CD database file
#
# Track frame offsets:
#	182
#	15940
#	20170
#	37172
#	44860
#	62735
#	79180
#	95350
#	109002
#	124977
#	143435
#	161795
#	175622
#	190382
#	204452
#	208440
#	231837
#
# Disc length: 3341 seconds
#
# Revision: 7
# Processed by: cddbd v1.5.2PL0 Copyright (c) Steve Scherf et al.
# Submitted via: CDex 1.92
#
DISCID=f50d0b11
DTITLE=Various Artist - The Legend of Jesse James
DYEAR=1980
DGENRE=Country
TTITLE0=Rodney Crowell, Jody Payne, Levon Helm and Rosanne Cash - Ride of the Redlegs
TTITLE1=Levon Helm - Quantrill's Guerillas
TTITLE2=Johnny Cash - Six Gun Shooting
TTITLE3=Albert Lee - Have You Heard the News?
TTITLE4=Emmylou Harris - Heaven Ain't Ready For You Yet
TTITLE5=Johnny Cash - Help Him, Jesus
TTITLE6=Charlie Daniels and Levon Helm - The Old Clay County
TTITLE7=Charlie Daniels - Riding With Jesse James
TTITLE8=Albert Lee - Hunt Them Down
TTITLE9=Emmylou Harris - Wish We Were Back In Missouri
TTITLE10=Levon Helm - Northfield - The Plan
TTITLE11=Charlie Daniels - Northfield - The Disaster
TTITLE12=Levon Helm - High Walls
TTITLE13=Johnny Cash and Levon Helm - The Death of Me
TTITLE14=Paul Kennerley - The Plot
TTITLE15=Levon Helm - One More Shot
TTITLE16=Paul Kennerley - A Train Robbery
EXTD=YEAR: 1980
EXTT0=
EXTT1=
EXTT2=
EXTT3=
EXTT4=
EXTT5=
EXTT6=
EXTT7=
EXTT8=
EXTT9=
EXTT10=
EXTT11=
EXTT12=
EXTT13=
EXTT14=
EXTT15=
EXTT16=
PLAYORDER=
